<?xml version="1.0" encoding="UTF-8"?>
<svg fill="none" viewBox="0 0 525 99" xmlns="http://www.w3.org/2000/svg">
<path d="m426.34 95.911c-0.353 0.0639-0.711 0.0934-1.069 0.0883-0.348-0.0325-0.686-0.1374-0.991-0.3079-0.305-0.1706-0.571-0.4029-0.78-0.6821-0.21-0.2792-0.358-0.599-0.436-0.9388-0.077-0.3398-0.082-0.6922-0.015-1.0341 0.265-1.4614 0.812-2.8573 1.613-4.11 0.486-0.7469 1.05-1.4449 1.485-2.2171 0.643-0.9936 1.166-2.0594 1.557-3.1753 1.616-5.3904 3.552-10.681 5.796-15.843 0.675-1.643 1.398-3.2718 1.974-4.9514 0.482-1.4072 1.342-2.656 2.486-3.6103 3.532-3.032 7.012-6.1259 10.57-9.1224 7.253-6.1537 14.076-12.794 20.421-19.873 1.393-1.5445 2.745-3.1225 4.126-4.674 1.876-2.0446 3.943-3.9054 6.175-5.5571 2.475-1.8196 4.826-3.7999 7.039-5.9278 0.493-0.4875 1.017-0.943 1.568-1.3637 2.619-1.9684 4.913-4.3318 6.799-7.0049 2.275-3.2942 2.832-2.586 5.764-2.4478 0.592 0.0431 1.172 0.18639 1.715 0.42371 2.377 0.98764 4.753 1.9865 7.095 3.0483 1.432 0.68618 2.761 1.5682 3.949 2.6205 1.088 0.87041 1.953 1.9846 2.527 3.2516 1.082 2.2211 2.366 4.3384 3.837 6.3251 1.031 1.5699 2.035 3.159 2.979 4.7756 0.421 0.6702 0.716 1.4113 0.87 2.1868 0.142 1.3669 0.587 2.6855 1.301 3.861 0.245 0.4406 0.347 0.9458 0.293 1.4465-0.055 0.5007-0.264 0.9724-0.599 1.3499-0.754 1.038-1.594 2.0107-2.512 2.908-1.968 1.8076-4.038 3.5066-6.057 5.2603-3.963 3.4385-7.957 6.8455-11.869 10.344-3.543 3.1723-6.952 6.4847-10.494 9.6529-2.878 2.5718-5.815 5.0805-8.822 7.511-4.778 3.8611-9.583 7.6735-14.114 11.824-1.607 1.4713-3.281 2.8705-4.948 4.2738-0.53 0.4448-1.101 0.8394-1.704 1.1787-1.299 0.7204-2.609 1.4224-3.949 2.0615-0.784 0.426-1.633 0.7206-2.513 0.8719-6.143 0.6249-11.984 2.5931-17.986 3.852-2.517 0.462-4.961 1.2525-7.27 2.3512-1.777 0.9737-3.785 1.4485-5.811 1.3738zm75.306-83.938c-0.038-0.076-0.085-0.1476-0.139-0.2135-0.03-0.0366-0.095-0.0405-0.144-0.0619 0.12 0.0651 0.239 0.129 0.361 0.192-0.217 0.8759 0.425 1.4378 0.8 2.0861 0.044 0.0857 0.106 0.1618 0.181 0.2237 0.074 0.0619 0.16 0.1083 0.253 0.1367s0.191 0.0381 0.287 0.0285c0.097-0.0095 0.191-0.0381 0.276-0.0841 0.355-0.1381 0.659-0.3792 0.874-0.692 0.228-0.4694-0.312-0.6157-0.612-0.7559-0.689-0.3252-1.416-0.5751-2.137-0.8596zm-49.443 56.323c0.047 0.8424 0.05 1.2377 0.093 1.6259 0.019 0.3482 0.171 0.6762 0.425 0.916s0.591 0.3731 0.941 0.3723c0.295 0.0244 0.594 0.0061 0.891 0.0305 0.542 0.0585 1.089-0.0368 1.578-0.2751 0.49-0.2382 0.902-0.6097 1.188-1.0713 0.942-1.2671 1.972-2.466 3.084-3.5878 3.997-3.9788 8.291-7.6496 12.846-10.981 7.506-5.6522 14.993-11.33 22.46-17.035 1.418-1.0798 2.807-2.1931 4.168-3.3399 1.743-1.4581 3.409-3.0107 5.177-4.4394 1.769-1.4286 3.647-2.7252 5.43-4.1365 3.408-2.6957 3.06-2.5749 0.435-5.6719-0.1-0.1439-0.229-0.2663-0.377-0.3603-0.149-0.094-0.315-0.1576-0.488-0.1871s-0.351-0.0243-0.523 0.0153c-0.171 0.0395-0.333 0.1126-0.476 0.2151-2.385 1.2116-4.635 2.6704-6.713 4.352-2.32 1.854-4.822 3.4683-7.469 4.8182-2.822 1.4548-5.413 3.3153-7.691 5.5216-6.365 6.0823-12.737 12.151-19.327 17.998-4.735 4.1975-9.181 8.7233-14.191 12.613-0.445 0.276-0.812 0.6599-1.068 1.116-0.255 0.456-0.39 0.969-0.393 1.4912zm11.808 10.128c0.27-0.0691 0.525-0.1839 0.755-0.3394 1.006-0.9531 1.997-1.9214 2.959-2.9152 2.836-2.8951 5.882-5.5781 9.114-8.0272 5.665-4.3229 11.072-8.9709 16.194-13.92 6.042-5.8517 12.333-11.42 18.771-16.833 2.116-1.7812 4.144-3.668 6.195-5.5284 0.364-0.3299 0.672-0.7172 0.91-1.1463 0.048-0.132 0.068-0.2729 0.057-0.4131-0.01-0.1402-0.051-0.2765-0.119-0.3997-0.073-0.186-0.192-0.3508-0.345-0.4792-0.154-0.1284-0.337-0.2164-0.534-0.2557-0.196-0.0392-0.399-0.0286-0.591 0.0309-0.191 0.0595-0.364 0.1661-0.503 0.3097-3.016 2.4062-6.044 4.798-9.022 7.2448-1.987 1.6258-3.832 3.4354-5.862 5.0032-6.102 4.7208-12.269 9.3594-18.401 14.035-5.111 3.8967-10.236 7.7792-15.302 11.728-2.027 1.578-3.919 3.3287-5.882 4.9869-0.315 0.2424-0.535 0.5867-0.621 0.9734-0.087 0.3868-0.035 0.7915 0.146 1.1441 0.442 1.2011 0.768 2.4386 1.16 3.658 0.095 0.2814 0.231 0.5474 0.403 0.7894 0.153 0.1445 0.328 0.2639 0.518 0.3537zm-4.228 3.1498c-0.041-0.0914-0.083-0.1788-0.119-0.2712-0.527-1.1669-0.974-2.3679-1.338-3.5949-0.104-0.6389-0.433-1.2201-0.927-1.6405s-1.122-0.6528-1.772-0.6559c-1.082-0.1087-2.177-0.1016-3.264-0.1809-2.812-0.2103-4.214-0.25-4.258-4.2676 0.036-0.6922-0.131-1.3799-0.482-1.9783-0.352-0.5984-0.871-1.0812-1.494-1.389-1.999-1.0839-4.011-2.1443-6.039-3.1814-0.13-0.0711-0.274-0.1152-0.422-0.1296s-0.298 0.0011-0.44 0.0457c-0.142 0.0447-0.273 0.1174-0.386 0.2139s-0.206 0.2146-0.272 0.3475c-0.25 0.4226-0.434 0.8807-0.546 1.3586-0.647 3.5896-1.546 7.1296-2.69 10.594-0.217 0.552-0.276 1.153-0.169 1.7361 0.106 0.5831 0.373 1.1253 0.77 1.5662 0.837 0.9735 1.773 1.8588 2.792 2.6418 1.08 0.7088 1.878 1.7718 2.254 3.0047 0.215 0.7864 0.625 0.9387 1.326 0.7396 1.998-0.5548 3.979-1.1796 5.995-1.6704 2.596-0.629 5.221-1.1177 7.817-1.7365 1.143-0.2743 2.251-0.7011 3.366-1.0893 0.139-0.0467 0.201-0.3038 0.298-0.4644v2e-3zm-3.196-30.537c-0.392-0.1921-0.841-0.2361-1.264-0.1241-0.422 0.1121-0.79 0.3727-1.034 0.7337-0.696 0.6991-1.411 1.383-2.057 2.1247-0.148 0.1662-0.254 0.3646-0.311 0.5793-0.057 0.2146-0.063 0.4395-0.017 0.6567 0.046 0.2173 0.142 0.4209 0.281 0.5944s0.317 0.3122 0.519 0.405c0.199 0.1508 0.442 0.2343 0.692 0.2381 0.25 0.0039 0.494-0.0721 0.698-0.2168 1.53-1.075 3.09-2.1165 4.533-3.3023 2.36-1.9417 4.645-3.9779 6.937-5.9948 0.484-0.4691 0.943-0.9641 1.373-1.4826-0.425-0.9826-1.396-0.3952-2.056-0.7011-0.176-0.0823-0.408-0.0559-0.569-0.1514-0.417-0.2729-0.924-0.3724-1.414-0.2775s-0.923 0.3768-1.206 0.7855c-0.466 0.5081-0.972 0.9826-1.47 1.4582-0.369 0.2507-0.634 0.6269-0.745 1.058-0.11 0.4311-0.059 0.8876 0.144 1.284 0.082 0.1813 0.122 0.3786 0.116 0.5774-5e-3 0.1987-0.055 0.3937-0.147 0.5704-0.091 0.1767-0.222 0.3306-0.381 0.4501-0.16 0.1196-0.344 0.2017-0.54 0.2403-0.731 0.2398-1.509 0.3597-2.082 0.4928v2e-3zm33.647-33.692c-0.183 0.0504-0.358 0.1249-0.52 0.2215-0.306 0.2489-0.579 0.5243-0.855 0.8006-1.159 1.1391-1.134 1.2814 0.204 2.0557 1.167 0.4991 2.214 1.2415 3.069 2.1774 0.486 0.6645 0.767 0.6005 1.274-0.1808 1.207-1.8585 1.895-1.5903-0.567-3.2749-0.721-0.4939-1.374-1.0843-2.075-1.6116-0.165-0.0903-0.344-0.1543-0.53-0.1899v2e-3zm-6.15 6.3861c-1.225-0.2265-1.38-0.1869-1.807 0.3232-0.755 0.8992-1.495 1.8065-2.235 2.7169-0.043 0.0764-0.071 0.1597-0.085 0.246 0.178 0.0457 0.457 0.191 0.516 0.127 0.416-0.4233 0.94-0.7244 1.516-0.8703s1.181-0.131 1.749 0.0431c0.763 0.1689 1.48 0.4988 2.104 0.9674 0.101 0.1014 0.222 0.1804 0.355 0.2317 0.134 0.0512 0.277 0.0737 0.419 0.0657 0.143-8e-3 0.283-0.0462 0.409-0.112 0.127-0.0658 0.239-0.1578 0.327-0.2698 0.074-0.0619 0.154-0.1209 0.231-0.1808 1.187-0.9064 1.141-1.2467-0.188-2.0657-1.006-0.6338-2.134-1.0509-3.311-1.2245v0.0021zm11.527-11.092c-0.315 0.248-0.714 0.5233-1.069 0.8383-0.379 0.3322-0.403 0.7112-0.044 0.9591 1.304 0.8807 2.616 1.7467 3.938 2.5982 0.628 0.4064 1.122 0.0235 1.583-0.3637 0.082-0.0524 0.15-0.1231 0.199-0.2065 0.05-0.0833 0.079-0.177 0.085-0.2735 7e-3 -0.0965-9e-3 -0.1933-0.047-0.2825s-0.096-0.1684-0.17-0.2312c-1.265-0.9288-2.531-1.8616-3.803-2.7812-0.213-0.1104-0.437-0.1973-0.669-0.2591l-3e-3 0.0021zm-14.614 20.542c-0.024-0.1686-7e-3 -0.2672-0.05-0.3231-0.054-0.0721-0.164-0.1747-0.23-0.1636-0.859 0.2204-1.762 0.1983-2.609-0.0638-0.847-0.2622-1.603-0.7541-2.185-1.4206-0.038-0.0234-0.08-0.0382-0.125-0.0437-0.044-0.0054-0.088-0.0013-0.13 0.0122-0.092 0.0367-0.176 0.0882-0.25 0.1524-0.106 0.0597-0.198 0.1411-0.269 0.2388-0.072 0.0976-0.121 0.2092-0.146 0.3276-0.025 0.1183-0.024 0.2405 2e-3 0.3585s0.078 0.2291 0.15 0.3259c1.006 0.7964 1.745 1.8788 2.119 3.1032 0.076 0.3607 0.408 0.32 0.658 0.1392 0.317-0.2276 0.619-0.4817 0.918-0.7398 0.734-0.6452 1.46-1.2965 2.15-1.9051l-3e-3 0.0019zm-8.467 7.1798c0.185-0.0307 0.363-0.0954 0.525-0.191 0.516-0.442 1.013-0.9084 1.501-1.3829 0.345-0.3353 0.285-0.6595-0.077-0.9542-0.603-0.4928-1.188-1.0068-1.806-1.4803-0.242-0.1613-0.505-0.2894-0.781-0.3811-0.331-0.1392-1.049 0.2916-1.355 0.8921-0.046 0.12-0.063 0.2495-0.049 0.3774 0.015 0.1279 0.06 0.2505 0.132 0.3573 0.693 0.6845 1.2 1.5325 1.476 2.465 0.044 0.1291 0.292 0.1982 0.441 0.2957l-7e-3 2e-3zm-2.829 2.02c-0.029 0.0488-0.102 0.1189-0.083 0.1555 0.031 0.0701 0.108 0.1199 0.164 0.1788 0.036-0.1107 0.07-0.2225 0.102-0.3343h-0.183z" clip-rule="evenodd" fill="#46f" fill-rule="evenodd"/>
<path d="m58.672 94.232-0.512 0.64c-2.048 0.512-4.736 0.768-8.064 0.768l-8.192-0.128c-0.256 0.0853-0.5973 0.128-1.024 0.128-0.512 0-0.896-0.0853-1.152-0.256-0.1707-0.0853-0.2987-0.1707-0.384-0.256-0.6827-4.608-1.024-10.667-1.024-18.176 0-0.768-0.0427-2.944-0.128-6.528s-0.3413-6.9973-0.768-10.24c-2.3893-0.4267-4.5227-0.64-6.4-0.64-2.3893 0-4.864 0.256-7.424 0.768-0.3413 2.3893-0.512 5.12-0.512 8.192 0 1.792 0.0853 4.5653 0.256 8.32s0.256 6.528 0.256 8.32c0 3.584-0.2133 6.656-0.64 9.216-0.1707 0-0.256 0.0853-0.256 0.256-1.1947 0.768-2.7733 1.152-4.736 1.152-1.1093 0-2.7733-0.1707-4.992-0.512s-3.712-0.512-4.48-0.512c-1.1093 0-2.176 0.2133-3.2 0.64-1.4507-0.512-2.176-5.3333-2.176-14.464v-7.424c0-5.888-0.17067-14.635-0.512-26.24-0.34134-11.605-0.512-20.395-0.512-26.368 0-2.304 0.04266-5.4187 0.128-9.344 0.08533-4.0107 0.17066-6.016 0.256-6.016v0.12801l0.64-0.768c0.85333 0 1.664 0.04266 2.432 0.128 0.85333 0.08533 1.7493 0.128 2.688 0.128l3.712-0.128c1.7067-0.17067 2.9867-0.256 3.84-0.256 2.6453 0 4.1813 0.384 4.608 1.152 0.4267 2.816 0.7253 5.8453 0.896 9.088s0.256 5.2907 0.256 6.144c0.1707 7.0827 0.5547 12.373 1.152 15.872h-0.128l0.384 2.048c1.7067 0.3413 3.6693 0.512 5.888 0.512 2.304 0 4.6507-0.2133 7.04-0.64 0.5973-7.936 0.896-14.805 0.896-20.608 0-4.0107-0.128-8.064-0.384-12.16 0.768-0.768 2.56-1.408 5.376-1.92s5.3333-0.768 7.552-0.768c1.536 0 2.7733 0.17067 3.712 0.512h1.536s0.2133 0.21333 0.64 0.64l3.456 89.6zm-5.632-0.128c1.4507 0 2.9013-0.128 4.352-0.384l-3.456-88.448c-0.5973 0-1.1093-0.04267-1.536-0.128-5.12 0-10.027 0.46933-14.72 1.408 0.256 3.84 0.384 7.68 0.384 11.52 0 6.0587-0.2987 13.184-0.896 21.376l-0.64 0.64h0.256c-0.6827 0-2.1333 0.128-4.352 0.384-2.1333 0.256-3.84 0.384-5.12 0.384-2.1333 0-3.968-0.384-5.504-1.152-0.5973-3.84-1.0667-9.5573-1.408-17.152-0.3413-7.168-0.768-12.544-1.28-16.128-0.5973-0.08533-1.4933-0.128-2.688-0.128-1.024 0-2.56 0.08533-4.608 0.256-2.048 0.17067-3.4987 0.256-4.352 0.256-1.4507 0-2.688-0.17067-3.712-0.512-0.256 6.144-0.384 12.245-0.384 18.304 0 12.715 0.08533 23.893 0.256 33.536 0.256 9.5573 0.72533 18.944 1.408 28.16 0 1.1093 0.04267 1.9627 0.128 2.56 0 2.304 0.08533 4.0107 0.256 5.12 0.93867-0.256 1.8347-0.384 2.688-0.384 1.024 0 2.6453 0.1707 4.864 0.512 2.048 0.3413 3.6267 0.512 4.736 0.512 1.536 0 2.8587-0.2987 3.968-0.896 0.4267-2.56 0.64-5.7173 0.64-9.472l-0.128-8.064c-0.1707-3.584-0.256-6.272-0.256-8.064 0-3.1573 0.1707-5.9733 0.512-8.448 0.6827-0.3413 2.0907-0.6827 4.224-1.024s4.2667-0.512 6.4-0.512c2.6453 0 4.4373 0.3413 5.376 1.024 0.256 0.256 0.4693 1.536 0.64 3.84s0.256 4.0533 0.256 5.248c0 5.8027 0.0427 10.667 0.128 14.592 0.1707 3.84 0.512 7.68 1.024 11.52h0.768c1.1093-0.3413 2.6027-0.512 4.48-0.512 1.536 0 2.7307 0.0427 3.584 0.128l3.712 0.128z" stroke="#46f" stroke-linejoin="round" stroke-width="4"/>
<path d="m84.403 95.64c-0.4267 0-0.768-0.0427-1.024-0.128l-4.736 0.256c-3.7547 0.1707-6.656 0.256-8.704 0.256h-4.992c1.792-6.0587 3.84-12.117 6.144-18.176s5.1627-13.184 8.576-21.376l2.304-5.76c0-1.28-0.384-2.944-1.152-4.992-0.6827-2.048-1.408-3.9253-2.176-5.632-0.768-1.792-1.28-3.0293-1.536-3.712l-1.152-2.432c-2.7307-6.2293-4.864-11.307-6.4-15.232-1.536-4.0107-2.7733-8.064-3.712-12.16 0.5973-0.59733 2.1333-1.024 4.608-1.28s4.864-0.384 7.168-0.384c2.4747 0 4.5653 0.42666 6.272 1.28 0 0.17067 0.0853 0.256 0.256 0.256 1.792 9.0453 4.864 18.005 9.216 26.88 0.9387-1.8773 1.8347-4.0107 2.688-6.4s1.6213-4.6933 2.304-6.912c1.792-5.888 3.413-10.325 4.864-13.312 0.427-0.42667 1.963-0.768 4.608-1.024s5.163-0.384 7.552-0.384c0.512 0 1.792 0.17066 3.84 0.512l3.456 0.512v0.384c-2.304 6.8267-4.864 13.483-7.68 19.968-2.731 6.4-6.485 14.635-11.264 24.704-4.4373 9.3013-8.1067 17.28-11.008 23.936-2.816 6.5707-5.376 13.227-7.68 19.968l-0.64 0.384zm36.736-88.704c-1.621 0-2.816-0.04267-3.584-0.128l-3.84-0.128c-3.925 0-7.125 0.256-9.6 0.768-1.28 2.816-2.859 7.2107-4.736 13.184-2.048 6.4853-3.84 11.264-5.376 14.336h-1.152c-5.0347-10.155-8.32-19.456-9.856-27.904-1.792-0.512-3.5413-0.768-5.248-0.768s-3.456 0.128-5.248 0.384c-0.5973 0.08533-1.3227 0.17067-2.176 0.256s-1.8773 0.128-3.072 0.128c0.8533 3.584 1.92 7.0827 3.2 10.496 1.3653 3.4133 3.2 7.808 5.504 13.184 0.768 1.6213 1.8347 4.0533 3.2 7.296 0.1707 0.512 0.896 2.2187 2.176 5.12s1.92 5.3333 1.92 7.296c0 0.9387-0.256 1.92-0.768 2.944s-0.8533 1.7493-1.024 2.176c-3.4133 8.3627-6.272 15.488-8.576 21.376-2.304 5.8027-4.352 11.648-6.144 17.536l0.384 0.128 4.224-0.256c5.632-0.256 8.6187-0.384 8.96-0.384 1.8773 0 3.072 0.128 3.584 0.384 2.304-6.5707 4.864-13.056 7.68-19.456 2.816-6.4853 6.3573-14.251 10.624-23.296 4.779-10.069 8.533-18.304 11.264-24.704 2.816-6.4853 5.376-13.141 7.68-19.968z" stroke="#46f" stroke-linejoin="round" stroke-width="4"/>
<path d="m185.34 33.944c0 4.7787-1.536 9.3867-4.608 13.824-3.072 4.352-6.997 7.8933-11.776 10.624s-9.643 4.096-14.592 4.096c-1.365 0-2.773-0.128-4.224-0.384 0 3.4987 0.085 8.7467 0.256 15.744s0.256 12.245 0.256 15.744l-0.512 0.512 0.256-0.128-0.128 0.128-0.512 0.256h0.128c-1.365 0.4267-3.285 0.768-5.76 1.024-2.389 0.256-4.821 0.384-7.296 0.384-5.205 0-8.277-0.4693-9.216-1.408-0.512-8.192-0.768-16.427-0.768-24.704 0-4.4373 0.085-11.093 0.256-19.968s0.256-15.573 0.256-20.096c0-9.1307-0.213-16.939-0.64-23.424l0.64-0.768c6.741-1.6213 13.184-2.432 19.328-2.432 6.229 0 12.288 1.0667 18.176 3.2 5.888 2.048 10.752 5.2907 14.592 9.728 3.84 4.352 5.76 9.8133 5.76 16.384l0.128 1.664zm-39.68-29.44c-6.144 0-12.032 0.68267-17.664 2.048 0.341 6.7413 0.512 14.293 0.512 22.656l-0.128 20.352c-0.171 9.0453-0.256 15.829-0.256 20.352 0 9.216 0.213 17.152 0.64 23.808 1.536 0.4267 4.096 0.64 7.68 0.64 5.717 0 10.027-0.384 12.928-1.152 0-2.4747-0.085-7.296-0.256-14.464-0.171-7.8507-0.256-13.611-0.256-17.28l0.768-0.768c1.365 0.3413 2.944 0.512 4.736 0.512 4.523 0 8.875-1.1093 13.056-3.328 4.267-2.2187 7.851-5.1627 10.752-8.832 2.901-3.7547 4.736-7.8507 5.504-12.288 0.085-0.256 0.128-0.64 0.128-1.152s0.043-0.8533 0.128-1.024v-2.432c0-6.5707-1.877-11.904-5.632-16-3.755-4.1813-8.533-7.168-14.336-8.96-5.717-1.792-11.819-2.688-18.304-2.688zm21.12 30.336c0 3.84-1.792 6.3147-5.376 7.424-3.499 1.024-7.851 1.536-13.056 1.536-2.219 0-3.328-3.6693-3.328-11.008v-4.48c0-2.3893 0.213-4.0107 0.64-4.864l0.128-0.128c0.427 0 1.067-0.0853 1.92-0.256 0.853-0.256 1.536-0.384 2.048-0.384 5.376 0 9.643 1.1947 12.8 3.584 1.28 0.8533 2.304 2.0907 3.072 3.712s1.152 3.2427 1.152 4.864zm-13.952-10.624c-1.195 0-2.133 0.0427-2.816 0.128l-3.328 0.128-0.128 7.808c0 4.5227 0.384 7.936 1.152 10.24h1.408c0.853-0.1707 1.493-0.256 1.92-0.256l2.688 0.128c3.755-0.1707 6.656-0.896 8.704-2.176s3.072-3.6267 3.072-7.04c-0.427-1.4507-0.896-2.6027-1.408-3.456s-1.28-1.664-2.304-2.432c-1.621-1.1947-3.115-2.0053-4.48-2.432s-2.859-0.64-4.48-0.64z" stroke="#46f" stroke-linejoin="round" stroke-width="4"/>
<path d="m216.32 4.12c11.947 0 21.461 0.34133 28.544 1.024v13.056c0 3.84-0.427 6.6133-1.28 8.32-1.451-0.3413-3.157-0.512-5.12-0.512-1.28 0-3.029 0.0853-5.248 0.256-2.389 0.1707-4.096 0.256-5.12 0.256l-0.128 7.68c-0.085 1.7067-0.128 4.224-0.128 7.552 0 5.8027 0.171 14.592 0.512 26.368 0.085 2.9013 0.171 6.528 0.256 10.88s0.128 9.4293 0.128 15.232c-0.341 0.8533-2.176 1.28-5.504 1.28l-4.992-0.128c-2.389-0.1707-4.096-0.256-5.12-0.256-2.304 0-4.267 0.2133-5.888 0.64-0.683-0.4267-1.024-1.3227-1.024-2.688 0-1.6213 0.085-4.0533 0.256-7.296l0.128-7.296v-16.896c0-14.933-0.128-26.197-0.384-33.792-1.024-0.512-2.261-0.896-3.712-1.152-1.451-0.3413-2.816-0.512-4.096-0.512l-6.272 0.128c-1.195 0-2.005-0.4267-2.432-1.28-0.341-0.9387-0.512-2.2613-0.512-3.968l0.128-3.328v-6.272-2.56c0-1.3653 0.085-2.6453 0.256-3.84h-0.128l0.64-0.768 26.24-0.128zm26.752 20.992c0.341-3.072 0.512-6.5707 0.512-10.496 0-3.4987-0.043-6.144-0.128-7.936-9.045-0.85334-19.925-1.28-32.64-1.28l-20.096 0.12799c-0.341 1.3653-0.512 4.6507-0.512 9.856 0 5.0347 0.299 8.1493 0.896 9.344 1.024 0.256 2.219 0.384 3.584 0.384l5.12-0.128c1.707 0 3.456 0.256 5.248 0.768s2.688 1.28 2.688 2.304c0 2.56-0.043 4.6933-0.128 6.4l-0.128 8.576c0 3.9253 0.085 9.8133 0.256 17.664l0.128 17.664c0 0.8533-0.085 2.56-0.256 5.12-0.171 3.072-0.256 5.376-0.256 6.912 0 1.1093 0.085 2.432 0.256 3.968 1.195-0.256 2.987-0.384 5.376-0.384 1.963 0 3.456 0.0427 4.48 0.128l4.48 0.128c1.963 0 3.755-0.1707 5.376-0.512-0.512-12.629-0.768-28.544-0.768-47.744v-17.792-1.152c0.085-0.4267 0.171-0.7253 0.256-0.896v0.128c0-1.024 3.371-1.536 10.112-1.536 2.731 0 4.779 0.128 6.144 0.384zm-16 0.512 0.128-0.128-0.256 0.384 0.128-0.256z" stroke="#46f" stroke-linejoin="round" stroke-width="4"/>
<path d="m308.15 83.736c0 3.072-0.085 5.5467-0.256 7.424s-0.683 3.2427-1.536 4.096c-3.669 0-9.088 0.0853-16.256 0.256-7.339 0.1707-12.8 0.256-16.384 0.256-6.656 0-13.269-0.256-19.84-0.768l-0.64-0.768c0-6.3147-0.085-15.787-0.256-28.416-0.256-9.472-0.384-18.944-0.384-28.416 0-12.288 0.256-22.528 0.768-30.72l0.64-0.512c4.181-0.256 10.496-0.46934 18.944-0.64001 2.816 0 7.04-0.08533 12.672-0.25599 1.109 0 2.944-0.08533 5.504-0.256 2.56-0.256 5.12-0.384 7.68-0.384 2.901 0 5.675 0.256 8.32 0.768 0.597 1.28 0.896 3.072 0.896 5.376 0 1.6213-0.085 3.968-0.256 7.04l-0.128 6.528c-0.597 1.28-4.608 1.92-12.032 1.92l-10.88-0.128c-1.28 0-3.2 0.0853-5.76 0.256l-5.376 0.128c0 0.768-0.085 1.92-0.256 3.456-0.171 2.56-0.256 4.48-0.256 5.76 0 1.792 0.171 3.3707 0.512 4.736 2.133 0.3413 4.693 0.512 7.68 0.512l7.68-0.128c0.683 1.4507 1.024 3.456 1.024 6.016 0 2.1333-0.043 3.712-0.128 4.736l-0.128 4.864c0 1.3653 0.043 2.3467 0.128 2.944-0.512 0.9387-2.645 1.408-6.4 1.408l-5.376-0.128c-0.512 0.1707-1.152 0.2987-1.92 0.384-0.683 0-1.28 0.0427-1.792 0.128-0.512 2.56-0.768 5.248-0.768 8.064 0 2.304 0.213 4.6507 0.64 7.04 2.56 0 4.779 0.0427 6.656 0.128 1.963 0.0853 3.584 0.1707 4.864 0.256 6.315 0.3413 11.008 0.512 14.08 0.512 1.621 0 4.139-0.0853 7.552-0.256 0 0 0.213 0.2133 0.64 0.64v0.256c0.085 1.3653 0.128 3.328 0.128 5.888zm-2.304 10.24c0.683-2.9867 1.024-6.3147 1.024-9.984 0-2.4747-0.043-4.352-0.128-5.632-1.365 0.0853-3.413 0.128-6.144 0.128-2.987 0-7.467-0.1707-13.44-0.512-1.536-0.0853-3.413-0.1707-5.632-0.256s-4.779-0.128-7.68-0.128c-0.939 0-1.408-2.4747-1.408-7.424 0-3.84 0.128-6.4427 0.384-7.808s0.853-2.2187 1.792-2.56c1.024-0.4267 2.901-0.64 5.632-0.64 1.195 0 2.091 0.0427 2.688 0.128l2.688 0.128c1.28 0 2.261-0.128 2.944-0.384l0.128-10.88c0-1.9627-0.128-3.968-0.384-6.016l-7.296-0.128c-0.427 0-1.024 0.0427-1.792 0.128s-1.707 0.128-2.816 0.128c-3.243 0-4.864-1.4933-4.864-4.48s0.043-5.504 0.128-7.552 0.384-3.6267 0.896-4.736l0.128-0.128c1.365 0 3.584-0.0853 6.656-0.256 2.901-0.1707 5.163-0.256 6.784-0.256l7.552 0.128c4.693 0 8.917-0.3413 12.672-1.024l0.128-6.016c0.171-2.7307 0.256-4.8213 0.256-6.272 0-2.304-0.085-4.0107-0.256-5.12-2.048-0.34134-4.565-0.512-7.552-0.512-2.048 0-4.949 0.08533-8.704 0.256-2.219 0.17066-3.755 0.256-4.608 0.256-5.461 0.17067-9.6 0.256-12.416 0.256-8.277 0.17067-14.464 0.384-18.56 0.64-0.512 8.1067-0.768 18.219-0.768 30.336 0 9.3867 0.128 18.688 0.384 27.904 0.171 12.459 0.256 21.803 0.256 28.032 6.571 0.512 13.056 0.768 19.456 0.768 3.499 0 8.832-0.0853 16-0.256 6.997-0.1707 12.288-0.256 15.872-0.256z" stroke="#46f" stroke-linejoin="round" stroke-width="4"/>
<path d="m369.13 5.912c-0.768 2.304-2.005 5.76-3.712 10.368-3.755 10.411-6.315 18.304-7.68 23.68-0.171 0.768-0.64 2.3467-1.408 4.736-0.683 2.3893-1.024 4.608-1.024 6.656 0 1.6213 0.213 3.2427 0.64 4.864s1.024 3.6267 1.792 6.016l0.896 3.072 3.2 10.624c2.475 7.8507 4.267 14.037 5.376 18.56-0.427 0.5973-1.536 0.9387-3.328 1.024-1.707 0.0853-4.437 0.128-8.192 0.128-3.584 0-5.803-0.256-6.656-0.768-0.683-0.4267-1.323-1.664-1.92-3.712-0.512-2.1333-0.811-3.328-0.896-3.584l-1.792-7.168c-1.195-5.9733-2.517-10.496-3.968-13.568-1.451 3.072-2.816 7.5093-4.096 13.312-0.853 3.4133-1.621 6.2293-2.304 8.448s-1.536 4.352-2.56 6.4l-0.64 0.384h-0.128c-1.451 0.4267-3.456 0.64-6.016 0.64-2.219 0-4.437-0.128-6.656-0.384-2.133-0.256-3.755-0.64-4.864-1.152l-0.384-0.768c1.536-5.8027 3.627-12.416 6.272-19.84 3.413-10.24 5.76-18.005 7.04-23.296-2.816-12.117-7.637-26.624-14.464-43.52 0.256-0.59733 2.005-1.024 5.248-1.28 3.243-0.34134 6.485-0.512 9.728-0.512 2.56 0 4.224 0.42666 4.992 1.28 0.853 0.768 1.365 1.792 1.536 3.072 0.256 1.1947 0.512 2.1333 0.768 2.816 0.597 1.9627 1.408 4.9067 2.432 8.832 1.451 5.2053 2.688 9.344 3.712 12.416 1.195-3.328 2.731-8.4053 4.608-15.232 1.024-4.352 2.219-8.5334 3.584-12.544v0.128c0.939-0.93867 3.584-1.408 7.936-1.408l6.784 0.128 3.2-0.128c1.536 0 2.56 0.256 3.072 0.768l-0.128 0.256v0.256zm-6.784 0.128c-5.803 0-10.112 0.17066-12.928 0.512-0.683 2.048-1.664 5.632-2.944 10.752-0.853 3.9253-1.707 7.296-2.56 10.112s-1.92 5.504-3.2 8.064h-1.152c-1.024-1.8773-2.048-4.9493-3.072-9.216-0.171-1.1947-0.512-2.56-1.024-4.096l-1.92-6.4c-1.195-3.7547-2.048-6.5707-2.56-8.448v-0.12799l-0.64-0.256c-6.315 0-12.075 0.17067-17.28 0.512 5.376 12.8 9.259 23.381 11.648 31.744 1.792 6.2293 2.688 10.112 2.688 11.648-0.768 3.84-1.749 7.68-2.944 11.52-1.195 3.7547-2.688 8.1067-4.48 13.056-2.816 8.3627-4.736 14.379-5.76 18.048 1.792 0.768 4.096 1.152 6.912 1.152 1.28 0 3.2-0.0853 5.76-0.256 1.707-0.1707 2.901-0.256 3.584-0.256 1.195-2.56 2.176-5.376 2.944-8.448 0.853-3.072 1.365-4.864 1.536-5.376 0.853-3.4987 1.621-6.3573 2.304-8.576s1.579-4.3947 2.688-6.528c0.171-0.0853 0.512-0.128 1.024-0.128 0.683 0.6827 1.195 1.5787 1.536 2.688 0.427 1.1093 0.725 2.2187 0.896 3.328 0.256 1.1093 0.469 1.9627 0.64 2.56l1.152 5.12c0.768 3.4987 1.451 6.4 2.048 8.704 0.683 2.2187 1.536 4.352 2.56 6.4 1.792 0.4267 4.011 0.64 6.656 0.64 1.451 0 3.541-0.0853 6.272-0.256l3.072-0.128c-1.365-5.2053-3.115-11.093-5.248-17.664l-3.2-10.752c-0.171-0.512-0.597-1.792-1.28-3.84-0.597-2.1333-1.109-4.096-1.536-5.888-0.341-1.8773-0.512-3.456-0.512-4.736 0.427-4.864 1.365-9.7707 2.816-14.72 1.536-4.9493 3.712-11.136 6.528-18.56 0.512-1.3653 1.109-3.0293 1.792-4.992 0.768-1.9627 1.579-4.2667 2.432-6.912h-5.248z" stroke="#46f" stroke-linejoin="round" stroke-width="4"/>
<path d="m398.13 4.12c11.947 0 21.461 0.34133 28.544 1.024v13.056c0 3.84-0.427 6.6133-1.28 8.32-1.451-0.3413-3.157-0.512-5.12-0.512-1.28 0-3.029 0.0853-5.248 0.256-2.389 0.1707-4.096 0.256-5.12 0.256l-0.128 7.68c-0.085 1.7067-0.128 4.224-0.128 7.552 0 5.8027 0.171 14.592 0.512 26.368 0.085 2.9013 0.171 6.528 0.256 10.88s0.128 9.4293 0.128 15.232c-0.341 0.8533-2.176 1.28-5.504 1.28l-4.992-0.128c-2.389-0.1707-4.096-0.256-5.12-0.256-2.304 0-4.267 0.2133-5.888 0.64-0.683-0.4267-1.024-1.3227-1.024-2.688 0-1.6213 0.085-4.0533 0.256-7.296l0.128-7.296v-16.896c0-14.933-0.128-26.197-0.384-33.792-1.024-0.512-2.261-0.896-3.712-1.152-1.451-0.3413-2.816-0.512-4.096-0.512l-6.272 0.128c-1.195 0-2.005-0.4267-2.432-1.28-0.341-0.9387-0.512-2.2613-0.512-3.968l0.128-3.328v-6.272-2.56c0-1.3653 0.085-2.6453 0.256-3.84h-0.128l0.64-0.768 26.24-0.128zm26.752 20.992c0.341-3.072 0.512-6.5707 0.512-10.496 0-3.4987-0.043-6.144-0.128-7.936-9.045-0.85334-19.925-1.28-32.64-1.28l-20.096 0.12799c-0.341 1.3653-0.512 4.6507-0.512 9.856 0 5.0347 0.299 8.1493 0.896 9.344 1.024 0.256 2.219 0.384 3.584 0.384l5.12-0.128c1.707 0 3.456 0.256 5.248 0.768s2.688 1.28 2.688 2.304c0 2.56-0.043 4.6933-0.128 6.4l-0.128 8.576c0 3.9253 0.085 9.8133 0.256 17.664l0.128 17.664c0 0.8533-0.085 2.56-0.256 5.12-0.171 3.072-0.256 5.376-0.256 6.912 0 1.1093 0.085 2.432 0.256 3.968 1.195-0.256 2.987-0.384 5.376-0.384 1.963 0 3.456 0.0427 4.48 0.128l4.48 0.128c1.963 0 3.755-0.1707 5.376-0.512-0.512-12.629-0.768-28.544-0.768-47.744v-17.792-1.152c0.085-0.4267 0.171-0.7253 0.256-0.896v0.128c0-1.024 3.371-1.536 10.112-1.536 2.731 0 4.779 0.128 6.144 0.384zm-16 0.512 0.128-0.128-0.256 0.384 0.128-0.256z" stroke="#46f" stroke-linejoin="round" stroke-width="4"/>
</svg>
